<svg width="45" height="45" viewBox="0 0 45 45" fill="none" xmlns="http://www.w3.org/2000/svg">
<path d="M39.0012 16.1104C40.148 13.9805 41.2403 10.337 40.046 6.97608C36.9437 4.06562 32.9389 1.9766 28.7425 1.28016C24.5461 0.583714 20.2374 1.14729 16.3613 2.89961C12.4852 4.65193 9.21578 7.51429 6.96645 11.1247C4.71713 14.7352 3.58895 18.9316 3.72456 23.1832C3.86017 27.4348 5.2535 31.5508 7.72834 35.0105C10.2032 38.4703 13.6484 41.1185 17.6283 42.6202C21.6082 44.1219 25.944 44.4098 30.0875 43.4473C34.231 42.4849 37.996 40.3153 40.9064 37.2131C41.2403 33.7654 40.4757 30.5433 39.0012 28.8503" stroke="#DAA520" stroke-width="1.27397" stroke-linecap="round"/>
<path d="M25.2861 37.6114C33.6154 37.6114 40.3676 30.8591 40.3676 22.5298C40.3676 14.2005 33.6154 7.4483 25.2861 7.4483C16.9568 7.4483 10.2046 14.2005 10.2046 22.5298C10.2046 30.8591 16.9568 37.6114 25.2861 37.6114Z" stroke="#2F4F4F" stroke-width="1.27397" stroke-linecap="round" stroke-linejoin="round"/>
<line x1="24.5194" y1="7.4162" x2="15.5267" y2="22.573" stroke="#2F4F4F" stroke-width="1.04915"/>
<line x1="37.6323" y1="14.1179" x2="20.6211" y2="14.1179" stroke="#2F4F4F" stroke-width="1.04915"/>
<line x1="38.5644" y1="28.8875" x2="30.0588" y2="14.1553" stroke="#2F4F4F" stroke-width="1.04915"/>
<line x1="26.3118" y1="37.3556" x2="34.8174" y2="22.6234" stroke="#2F4F4F" stroke-width="1.04915"/>
<line x1="12.9024" y1="30.8293" x2="29.9136" y2="30.8293" stroke="#2F4F4F" stroke-width="1.04915"/>
<line x1="11.8579" y1="15.9539" x2="20.3635" y2="30.686" stroke="#2F4F4F" stroke-width="1.04915"/>
</svg>
