<svg width="329" height="258" viewBox="0 0 329 258" fill="none" xmlns="http://www.w3.org/2000/svg">
<path fill-rule="evenodd" clip-rule="evenodd" d="M106.924 252.99C88.0495 259.116 66.2876 259.007 48.4768 249.854C7.38168 228.737 -10.3992 174.313 6.14346 116.645C13.5639 90.777 26.6132 65.6588 54.2522 40.3055C81.8912 14.9546 120.224 3.05176e-05 138.009 3.05176e-05C144.381 3.05176e-05 149.546 5.02177 149.546 11.2159C149.546 17.4101 144.268 22.4318 138.009 22.4318C117.693 22.4318 99.5408 33.4862 78.0449 49.7687C61.5949 62.2318 48.749 78.1725 41.6336 92.0628C28.0309 118.629 27.5703 156.073 49.5505 166.025C60.1054 154.494 73.8905 147.767 90.4078 147.767C126.297 147.767 147.449 176.639 146.539 202.781C145.67 227.765 129.796 245.567 106.924 252.99ZM286.379 252.99C267.503 259.116 245.743 259.007 227.93 249.854C186.836 228.737 169.056 174.313 185.597 116.645C193.017 90.777 206.068 65.6588 233.707 40.3055C261.345 14.9546 299.679 3.05176e-05 317.464 3.05176e-05C323.835 3.05176e-05 329 5.02177 329 11.2159C329 17.4101 323.723 22.4318 317.464 22.4318C297.148 22.4318 278.995 33.4862 257.5 49.7687C241.048 62.2318 228.202 78.1725 221.089 92.0628C207.485 118.629 207.024 156.073 229.005 166.025C239.561 154.494 253.346 147.767 269.862 147.767C305.752 147.767 326.903 176.639 325.994 202.781C325.125 227.765 309.25 245.567 286.379 252.99Z" fill="#325252"/>
</svg>
