<svg width="21" height="16" viewBox="0 0 21 16" fill="none" xmlns="http://www.w3.org/2000/svg">
<path fill-rule="evenodd" clip-rule="evenodd" d="M6.90986 15.3793C5.76246 15.7517 4.43956 15.745 3.35683 15.1886C0.858648 13.905 -0.22226 10.5965 0.783377 7.09087C1.23447 5.51833 2.02774 3.99138 3.70792 2.45015C5.3881 0.909057 7.71839 -3.24249e-05 8.79954 -3.24249e-05C9.18684 -3.24249e-05 9.50083 0.30524 9.50083 0.681786C9.50083 1.05833 9.18003 1.3636 8.79954 1.3636C7.56452 1.3636 6.46103 2.0356 5.15428 3.02542C4.15428 3.78306 3.37337 4.75209 2.94083 5.59649C2.11392 7.21147 2.08592 9.48771 3.4221 10.0927C4.06374 9.39169 4.90174 8.98276 5.90583 8.98276C8.08755 8.98276 9.37337 10.7379 9.31808 12.3271C9.26524 13.8459 8.30025 14.9281 6.90986 15.3793ZM17.8189 15.3793C16.6715 15.7517 15.3487 15.745 14.2659 15.1886C11.7677 13.905 10.6869 10.5965 11.6924 7.09087C12.1435 5.51833 12.9368 3.99138 14.617 2.45015C16.2972 0.909057 18.6275 -3.24249e-05 19.7086 -3.24249e-05C20.0959 -3.24249e-05 20.4099 0.30524 20.4099 0.681786C20.4099 1.05833 20.0891 1.3636 19.7086 1.3636C18.4736 1.3636 17.3701 2.0356 16.0634 3.02542C15.0633 3.78306 14.2824 4.75209 13.85 5.59649C13.023 7.21147 12.995 9.48771 14.3312 10.0927C14.9729 9.39169 15.8109 8.98276 16.8149 8.98276C18.9966 8.98276 20.2825 10.7379 20.2272 12.3271C20.1743 13.8459 19.2093 14.9281 17.8189 15.3793Z" fill="#DAA520"/>
</svg>
